# xmcd CD database file
#
# Track frame offsets:
#	225
#	18890
#	41446
#	68688
#	92903
#
# Disc length: 1508 seconds
#
# Revision: 0
# Processed by: cddbd v1.5.1PL2 Copyright (c) Steve Scherf et al.
# Submitted via: CDex 1.51
#
DISCID=3405e105
DTITLE=iora - 5keys
DYEAR=1900
DGENRE=JPop
TTITLE0=original sky
TTITLE1=aaao
TTITLE2=十字峡
TTITLE3=i am trigger
TTITLE4=追い風
EXTD=
EXTT0=
EXTT1=
EXTT2=
EXTT3=
EXTT4=
PLAYORDER=
